<svg width="170" height="170" viewBox="0 0 170 170" fill="none" xmlns="http://www.w3.org/2000/svg">
<g clip-path="url(#clip0_38_513)">
<path d="M46.7629 114.62L48.3965 113.69L45.46 108.531C33.0779 86.7782 40.7937 58.9357 62.5465 46.5535C84.2992 34.1714 113.039 41.2629 125.421 63.0157L128.357 68.1744C130.593 66.9019 132.999 66.3292 135.795 67.2419L131.831 60.2776C117.393 34.9137 85.0493 25.8897 59.5994 40.3763C34.1496 54.8629 25.3464 87.1948 39.833 112.645L43.7972 119.609C43.5803 117.228 44.5274 115.892 46.7629 114.62Z" fill="white" stroke="black" stroke-width="1.5873"/>
<path d="M50.8635 113.424L47.2523 115.48C44.587 116.997 43.4904 119.67 44.5658 122.359C45.0552 123.219 45.4613 122.533 45.5591 122.704L60.682 149.272C62.346 152.195 65.8632 154.974 68.7865 153.31L70.592 152.283L71.4518 151.793L72.3116 151.304C75.2349 149.64 76.0167 144.414 74.3527 141.49L59.2299 114.923C59.132 114.751 58.6769 115.351 58.2365 114.578C56.6452 112.182 53.5288 111.907 50.8635 113.424Z" fill="white" stroke="black" stroke-width="1.5873"/>
<path d="M44.0843 124.113L43.3105 124.554C40.3872 126.218 39.1914 129.517 40.8554 132.44L50.5457 149.464C52.2097 152.387 56.0973 153.817 59.0206 152.153L59.7084 151.761C59.7084 151.761 59.8341 149.982 59.7852 149.896L44.6623 123.329C44.6504 123.108 44.0843 124.113 44.0843 124.113Z" fill="#5AE263" stroke="black" stroke-width="1.5873"/>
<path d="M43.6438 123.339C43.7787 123.376 43.9136 123.413 43.9996 123.364L43.9017 123.192L43.6438 123.339Z" fill="#CCCCCC" stroke="black" stroke-width="1.5873"/>
<path d="M137.913 70.3627C136.187 67.9301 131.512 67.5174 128.847 69.0346L125.236 71.0901C122.57 72.6073 122.135 76.0424 123.296 78.6827C123.786 79.5425 124.192 78.856 124.29 79.0279L139.413 105.596C141.077 108.519 143.932 110.536 146.856 108.872L148.489 107.942L149.349 107.453L150.467 106.817C153.39 105.153 154.919 100.639 153.255 97.716L138.132 71.1484C137.997 71.1113 138.402 71.2225 137.913 70.3627Z" fill="white" stroke="black" stroke-width="1.5873"/>
<path d="M137.888 70.7181L138.318 70.4734C137.742 69.6626 137.888 70.7181 137.888 70.7181Z" fill="#CCCCCC" stroke="black" stroke-width="1.5873"/>
<path d="M139.521 69.7885L139.177 69.9843L138.466 69.934L153.589 96.5016C153.638 96.5876 154.458 97.8283 154.458 97.8283L155.145 97.4368C158.069 95.7728 158.726 91.5281 157.062 88.6048L147.665 72.0968C146.038 69.0385 142.445 68.1245 139.521 69.7885Z" fill="#5AE263" stroke="black" stroke-width="1.5873"/>
<path d="M153.54 96.4157L138.417 69.8481C138.319 69.6762 137.839 70.6325 137.839 70.6325C137.753 70.6814 137.863 71.0743 137.826 71.2092L153.242 98.2927L153.5 98.1459C153.549 98.2319 153.589 96.5017 153.54 96.4157Z" fill="#CCCCCC" stroke="black" stroke-width="1.5873"/>
<path d="M137.447 69.9447L137.189 70.0916L137.287 70.2635C137.373 70.2146 137.41 70.0797 137.447 69.9447Z" fill="#CCCCCC" stroke="black" stroke-width="1.5873"/>
<path d="M48.5685 113.592L52.0077 111.635C51.4918 111.928 50.8899 112.271 50.2881 112.613L48.5685 113.592Z" fill="#CCCCCC" stroke="black" stroke-width="1.5873"/>
<path d="M124.832 70.1813C124.23 70.5239 123.628 70.8665 123.113 71.1602L126.466 69.2515L124.832 70.1813Z" fill="#CCCCCC" stroke="black" stroke-width="1.5873"/>
<path d="M138.232 70.5228C137.716 70.8164 137.176 70.6683 136.882 70.1524L131.401 60.5227C117.061 35.3308 84.9501 26.5157 59.8442 40.8066C34.7382 55.0974 25.9231 87.2085 40.2629 112.4L45.7443 122.03C46.038 122.546 45.8898 123.086 45.374 123.379C44.8581 123.673 44.3184 123.525 44.0248 123.009L38.5433 113.379C23.6652 87.2415 32.8136 53.9162 58.8653 39.087C84.9171 24.2578 118.242 33.4062 133.121 59.5439L138.602 69.1736C138.896 69.6894 138.747 70.2291 138.232 70.5228Z" fill="black" stroke="black" stroke-width="1.5873"/>
<path d="M73.2177 152.496L69.9505 154.355C66.5113 156.313 62.1819 154.907 60.0285 151.124L44.4652 123.782C42.3607 120.085 43.4229 115.952 46.9481 113.945L50.2153 112.085C53.9984 109.932 58.8436 111.044 60.8013 114.484L76.3646 141.825C78.3712 145.35 76.8288 150.44 73.2177 152.496ZM47.9269 115.665C45.3475 117.133 44.6187 120.052 46.1848 122.804L61.7481 150.145C63.3632 152.982 66.4782 154.055 68.9716 152.636L72.2389 150.776C74.9902 149.21 76.1132 145.383 74.645 142.804L59.0817 115.462C57.5156 112.711 53.6875 112.386 51.1941 113.805L47.9269 115.665Z" fill="black" stroke="black" stroke-width="1.5873"/>
<path d="M61.3394 152.427L59.7058 153.357C56.0086 155.461 51.9756 152.976 49.969 149.45L40.5723 132.942C38.3699 129.073 39.2231 125.173 42.5763 123.264L44.2099 122.334C44.7258 122.04 45.2655 122.188 45.5591 122.704C45.8528 123.22 45.7046 123.76 45.1888 124.054L43.5552 124.983C40.6319 126.647 40.9705 129.642 42.2919 131.964L51.6886 148.472C53.2058 151.137 56.1476 153.105 58.7269 151.637L60.3605 150.707C60.8764 150.413 61.4161 150.562 61.7097 151.078C62.0034 151.593 61.8552 152.133 61.3394 152.427Z" fill="black" stroke="black" stroke-width="1.5873"/>
<path d="M70.85 152.136C70.3341 152.43 69.7944 152.282 69.5008 151.766L52.3713 121.673C52.0777 121.157 52.2258 120.617 52.7417 120.324C53.2576 120.03 53.7973 120.178 54.0909 120.694L71.2204 150.787C71.514 151.303 71.3658 151.843 70.85 152.136Z" fill="black" stroke="black" stroke-width="1.5873"/>
<path d="M151.459 107.959L148.192 109.819C144.752 111.777 140.423 110.371 138.27 106.587L122.706 79.246C120.602 75.5489 121.664 71.4153 125.189 69.4088L128.456 67.549C132.24 65.3956 137.085 66.508 139.042 69.9472L154.606 97.2886C156.612 100.814 155.07 105.904 151.459 107.959ZM126.168 71.1283C123.589 72.5966 122.86 75.5159 124.426 78.2672L139.989 105.609C141.604 108.446 144.719 109.519 147.213 108.099L150.48 106.24C153.231 104.674 154.354 100.847 152.886 98.2674L137.323 70.926C135.757 68.1747 131.929 67.8493 129.435 69.2686L126.168 71.1283Z" fill="black" stroke="black" stroke-width="1.5873"/>
<path d="M155.831 98.6404L155.057 99.0808C154.541 99.3745 154.001 99.2263 153.708 98.7105C153.414 98.1946 153.562 97.6549 154.078 97.3612L154.852 96.9208C157.603 95.3547 158.052 91.3427 156.583 88.7634L147.187 72.2553C145.718 69.676 142.345 68.75 139.68 70.2672L138.906 70.7077C138.39 71.0013 137.851 70.8532 137.557 70.3373C137.263 69.8214 137.411 69.2817 137.927 68.9881L138.701 68.5476C142.312 66.4921 146.9 67.7514 148.906 71.2765L158.303 87.7845C160.456 91.5676 159.27 96.6827 155.831 98.6404Z" fill="black" stroke="black" stroke-width="1.5873"/>
<path d="M149.951 107.11C149.435 107.404 148.895 107.255 148.602 106.74L131.472 76.6468C131.179 76.1309 131.327 75.5913 131.843 75.2976C132.359 75.004 132.898 75.1521 133.192 75.668L150.321 105.761C150.615 106.277 150.467 106.816 149.951 107.11Z" fill="black" stroke="black" stroke-width="1.5873"/>
<path d="M128.417 69.2792C127.901 69.5728 127.361 69.4247 127.068 68.9088L124.131 63.7501C112.141 42.6851 85.0334 35.4614 63.7105 47.5988C42.3877 59.7362 34.7591 86.7322 46.7497 107.797L49.6862 112.956C49.9799 113.472 49.8317 114.011 49.3158 114.305C48.8 114.599 48.2603 114.451 47.9666 113.935L45.0302 108.776C32.5012 86.7653 40.4631 58.555 62.7317 45.8792C85.0003 33.2034 113.322 40.7605 125.851 62.7712L128.787 67.93C129.081 68.4459 128.933 68.9855 128.417 69.2792Z" fill="black" stroke="black" stroke-width="1.5873"/>
</g>
<defs>
<clipPath id="clip0_38_513">
<rect width="124" height="124" fill="white" transform="translate(0 61.6659) scale(1.00528) rotate(-29.6494)"/>
</clipPath>
</defs>
</svg>
